<?xml version="1.0" standalone="no"?>
<!DOCTYPE svg PUBLIC "-//W3C//DTD SVG 20010904//EN"
 "http://www.w3.org/TR/2001/REC-SVG-20010904/DTD/svg10.dtd">
<svg version="1.0" xmlns="http://www.w3.org/2000/svg"
 width="500.000000pt" height="500.000000pt" viewBox="0 0 500.000000 500.000000"
 preserveAspectRatio="xMidYMid meet">

<g transform="translate(0.000000,500.000000) scale(0.100000,-0.100000)"
fill="#000000" stroke="none">
<path d="M2395 4911 c-93 -15 -169 -42 -260 -93 -387 -217 -1460 -846 -1543
-905 -114 -81 -218 -233 -271 -395 l-22 -67 4 -968 c3 -676 8 -983 16 -1018 6
-27 31 -91 55 -141 50 -103 140 -208 232 -269 92 -61 571 -331 712 -402 124
-62 138 -67 213 -71 198 -11 366 83 452 254 l35 70 8 1224 7 1223 -86 -6
c-105 -7 -142 -22 -208 -84 -95 -89 -86 23 -95 -1181 -5 -753 -10 -1068 -18
-1084 -10 -20 -20 -23 -82 -26 l-70 -3 -255 144 c-445 252 -462 264 -520 379
l-30 59 -6 922 -6 922 33 65 c47 95 75 127 149 175 177 114 1377 817 1490 873
71 35 80 37 170 37 112 0 84 12 516 -227 652 -362 1171 -664 1212 -705 23 -23
56 -69 72 -102 l31 -60 7 -924 6 -923 -43 -82 c-25 -48 -58 -96 -80 -115 -58
-49 -1388 -835 -1549 -915 -71 -35 -80 -37 -173 -37 l-98 0 -127 66 -128 66
-172 -101 c-95 -56 -173 -104 -173 -107 0 -8 285 -170 405 -230 93 -46 107
-50 208 -59 122 -11 234 0 320 29 61 21 173 84 767 429 593 344 868 508 923
550 71 54 160 169 212 275 38 78 47 107 56 187 7 64 9 391 6 1005 -4 1018 -1
975 -77 1125 -33 66 -62 104 -138 182 l-97 98 -615 346 c-869 489 -982 550
-1070 574 -84 23 -229 33 -305 21z"/>
<path d="M2361 3163 c0 -494 4 -962 8 -1040 7 -132 10 -146 41 -210 39 -80
139 -184 216 -225 93 -50 142 -56 514 -63 365 -7 545 2 604 30 106 51 163 143
173 278 l6 87 -555 0 -554 0 -31 33 -31 32 -5 870 -5 871 -26 52 c-31 60 -82
114 -134 141 -34 17 -151 41 -201 41 l-21 0 1 -897z"/>
</g>
</svg>
